<svg width="32" height="32" viewBox="0 0 32 32" fill="none" xmlns="http://www.w3.org/2000/svg">
  <defs>
    <linearGradient id="tutteGrad1" x1="0%" y1="0%" x2="100%" y2="100%">
      <stop offset="0%" style="stop-color:#007AFF;stop-opacity:1" />
      <stop offset="100%" style="stop-color:#0051D5;stop-opacity:1" />
    </linearGradient>
    <linearGradient id="tutteGrad2" x1="0%" y1="0%" x2="100%" y2="100%">
      <stop offset="0%" style="stop-color:#34C759;stop-opacity:1" />
      <stop offset="100%" style="stop-color:#30A14E;stop-opacity:1" />
    </linearGradient>
    <linearGradient id="tutteGrad3" x1="0%" y1="0%" x2="100%" y2="100%">
      <stop offset="0%" style="stop-color:#FF9500;stop-opacity:1" />
      <stop offset="100%" style="stop-color:#FF8C00;stop-opacity:1" />
    </linearGradient>
    <linearGradient id="tutteGrad4" x1="0%" y1="0%" x2="100%" y2="100%">
      <stop offset="0%" style="stop-color:#FF2D92;stop-opacity:1" />
      <stop offset="100%" style="stop-color:#E50A76;stop-opacity:1" />
    </linearGradient>
  </defs>
  
  <!-- Beautiful app grid with different colors -->
  <!-- Row 1 -->
  <rect x="3" y="3" width="9" height="9" fill="url(#tutteGrad1)" rx="2.5"/>
  <rect x="15" y="3" width="9" height="9" fill="url(#tutteGrad2)" rx="2.5"/>
  
  <!-- Row 2 -->
  <rect x="3" y="15" width="9" height="9" fill="url(#tutteGrad3)" rx="2.5"/>
  <rect x="15" y="15" width="9" height="9" fill="url(#tutteGrad4)" rx="2.5"/>
  
  <!-- Subtle highlights on each app -->
  <rect x="4" y="4" width="7" height="2" fill="#FFFFFF" opacity="0.3" rx="1"/>
  <rect x="16" y="4" width="7" height="2" fill="#FFFFFF" opacity="0.3" rx="1"/>
  <rect x="4" y="16" width="7" height="2" fill="#FFFFFF" opacity="0.3" rx="1"/>
  <rect x="16" y="16" width="7" height="2" fill="#FFFFFF" opacity="0.3" rx="1"/>
  
  <!-- Small dots to represent app icons -->
  <circle cx="7.5" cy="8.5" r="1.5" fill="#FFFFFF" opacity="0.8"/>
  <circle cx="19.5" cy="8.5" r="1.5" fill="#FFFFFF" opacity="0.8"/>
  <circle cx="7.5" cy="20.5" r="1.5" fill="#FFFFFF" opacity="0.8"/>
  <circle cx="19.5" cy="20.5" r="1.5" fill="#FFFFFF" opacity="0.8"/>
</svg>
