<svg width="32" height="32" viewBox="0 0 32 32" fill="none" xmlns="http://www.w3.org/2000/svg">
  <defs>
    <linearGradient id="giochiGrad" x1="0%" y1="0%" x2="100%" y2="100%">
      <stop offset="0%" style="stop-color:#FF9500;stop-opacity:1" />
      <stop offset="50%" style="stop-color:#FF8C00;stop-opacity:1" />
      <stop offset="100%" style="stop-color:#E5780A;stop-opacity:1" />
    </linearGradient>
    <filter id="giochiGlow">
      <feGaussianBlur stdDeviation="1" result="coloredBlur"/>
      <feMerge>
        <feMergeNode in="coloredBlur"/>
        <feMergeNode in="SourceGraphic"/>
      </feMerge>
    </filter>
  </defs>
  
  <!-- Controller body -->
  <path d="M8 12C8 10 10 8 12 8H20C22 8 24 10 24 12V18C24 20 22 22 20 22H12C10 22 8 20 8 18V12Z" fill="url(#giochiGrad)" filter="url(#giochiGlow)"/>
  
  <!-- Left grip -->
  <path d="M6 14C4.5 14 3 15.5 3 17V19C3 20.5 4.5 22 6 22C7.5 22 8 20.5 8 19V17C8 15.5 7.5 14 6 14Z" fill="url(#giochiGrad)" filter="url(#giochiGlow)"/>
  
  <!-- Right grip -->
  <path d="M26 14C27.5 14 29 15.5 29 17V19C29 20.5 27.5 22 26 22C24.5 22 24 20.5 24 19V17C24 15.5 24.5 14 26 14Z" fill="url(#giochiGrad)" filter="url(#giochiGlow)"/>
  
  <!-- D-pad -->
  <g opacity="0.9">
    <rect x="11" y="12" width="2" height="6" fill="#FFFFFF" rx="1"/>
    <rect x="10" y="13" width="4" height="2" fill="#FFFFFF" rx="1"/>
  </g>
  
  <!-- Action buttons -->
  <circle cx="19" cy="13" r="1.5" fill="#FF2D92" opacity="0.9"/>
  <circle cx="22" cy="13" r="1.5" fill="#30D158" opacity="0.9"/>
  <circle cx="19" cy="16" r="1.5" fill="#007AFF" opacity="0.9"/>
  <circle cx="22" cy="16" r="1.5" fill="#FFCC00" opacity="0.9"/>
  
  <!-- Center button -->
  <rect x="14" y="15" width="4" height="1" fill="#FFFFFF" opacity="0.7" rx="0.5"/>
</svg>