<svg width="24" height="24" viewBox="0 0 24 24" fill="none" xmlns="http://www.w3.org/2000/svg">
<!-- Modern finance icon with coins and growth chart -->
<circle cx="8" cy="8" r="5" fill="currentColor" opacity="0.8"/>
<circle cx="8" cy="8" r="4" fill="none" stroke="currentColor" stroke-width="0.5" opacity="0.3"/>
<!-- Dollar sign in coin -->
<path d="M8 5V11M6.5 6.5H9C9.55228 6.5 10 6.94772 10 7.5C10 8.05228 9.55228 8.5 9 8.5H7C6.44772 8.5 6 8.94772 6 9.5C6 10.0523 6.44772 10.5 7 10.5H9.5" stroke="white" stroke-width="1.2" stroke-linecap="round" opacity="0.9"/>
<!-- Second coin (smaller, overlapping) -->
<circle cx="14" cy="6" r="3.5" fill="currentColor" opacity="0.6"/>
<path d="M14 3.5V8.5M12.8 4.3H15C15.3866 4.3 15.7 4.6134 15.7 5C15.7 5.3866 15.3866 5.7 15 5.7H13.2C12.8134 5.7 12.5 6.0134 12.5 6.4C12.5 6.7866 12.8134 7.1 13.2 7.1H15.2" stroke="white" stroke-width="0.8" stroke-linecap="round" opacity="0.8"/>
<!-- Growth chart -->
<path d="M16 12L18 10L20 11L22 8" stroke="currentColor" stroke-width="2" stroke-linecap="round" stroke-linejoin="round" opacity="0.7"/>
<path d="M19 8H22V11" stroke="currentColor" stroke-width="2" stroke-linecap="round" stroke-linejoin="round" opacity="0.7"/>
<!-- Chart bars -->
<rect x="3" y="16" width="2" height="5" rx="0.5" fill="currentColor" opacity="0.5"/>
<rect x="6" y="14" width="2" height="7" rx="0.5" fill="currentColor" opacity="0.6"/>
<rect x="9" y="18" width="2" height="3" rx="0.5" fill="currentColor" opacity="0.4"/>
<rect x="12" y="15" width="2" height="6" rx="0.5" fill="currentColor" opacity="0.7"/>
<!-- Sparkle effects for wealth -->
<circle cx="18" cy="14" r="0.5" fill="currentColor" opacity="0.4"/>
<circle cx="4" cy="12" r="0.3" fill="currentColor" opacity="0.3"/>
<circle cx="21" cy="15" r="0.4" fill="currentColor" opacity="0.5"/>
</svg>