<svg width="32" height="32" viewBox="0 0 32 32" fill="none" xmlns="http://www.w3.org/2000/svg">
  <defs>
    <linearGradient id="socialGrad" x1="0%" y1="0%" x2="100%" y2="100%">
      <stop offset="0%" style="stop-color:#FF2D92;stop-opacity:1" />
      <stop offset="50%" style="stop-color:#E50A76;stop-opacity:1" />
      <stop offset="100%" style="stop-color:#C4005A;stop-opacity:1" />
    </linearGradient>
    <filter id="socialGlow">
      <feGaussianBlur stdDeviation="1" result="coloredBlur"/>
      <feMerge>
        <feMergeNode in="coloredBlur"/>
        <feMergeNode in="SourceGraphic"/>
      </feMerge>
    </filter>
  </defs>
  
  <!-- Main person -->
  <circle cx="16" cy="10" r="4" fill="url(#socialGrad)" filter="url(#socialGlow)"/>
  <path d="M8 22C8 18 11.5 15 16 15C20.5 15 24 18 24 22V26C24 27 23 28 22 28H10C9 28 8 27 8 26V22Z" fill="url(#socialGrad)" filter="url(#socialGlow)"/>
  
  <!-- Left person (partial) -->
  <circle cx="6" cy="12" r="3" fill="url(#socialGrad)" opacity="0.7"/>
  <path d="M0 24C0 21 2.5 18 6 18C7 18 8 18.2 8.8 18.6C8.3 19.7 8 21 8 22.5V26C8 26.5 8.1 27 8.3 27.5H2C1 27.5 0 26.5 0 25.5V24Z" fill="url(#socialGrad)" opacity="0.7"/>
  
  <!-- Right person (partial) -->
  <circle cx="26" cy="12" r="3" fill="url(#socialGrad)" opacity="0.7"/>
  <path d="M32 24C32 21 29.5 18 26 18C25 18 24 18.2 23.2 18.6C23.7 19.7 24 21 24 22.5V26C24 26.5 23.9 27 23.7 27.5H30C31 27.5 32 26.5 32 25.5V24Z" fill="url(#socialGrad)" opacity="0.7"/>
  
  <!-- Connection lines -->
  <g opacity="0.5">
    <line x1="9" y1="11" x2="13" y2="9" stroke="#FFFFFF" stroke-width="1"/>
    <line x1="23" y1="11" x2="19" y2="9" stroke="#FFFFFF" stroke-width="1"/>
  </g>
  
  <!-- Network dots -->
  <circle cx="4" cy="8" r="1" fill="#FFFFFF" opacity="0.6"/>
  <circle cx="28" cy="8" r="1" fill="#FFFFFF" opacity="0.6"/>
  <circle cx="16" cy="3" r="1" fill="#FFFFFF" opacity="0.6"/>
</svg>