<svg width="32" height="32" viewBox="0 0 32 32" fill="none" xmlns="http://www.w3.org/2000/svg">
  <defs>
    <linearGradient id="creativitaGrad" x1="0%" y1="0%" x2="100%" y2="100%">
      <stop offset="0%" style="stop-color:#FF6B6B;stop-opacity:1" />
      <stop offset="30%" style="stop-color:#FF8E8E;stop-opacity:1" />
      <stop offset="70%" style="stop-color:#FF4444;stop-opacity:1" />
      <stop offset="100%" style="stop-color:#E53E3E;stop-opacity:1" />
    </linearGradient>
    <filter id="creativitaGlow">
      <feGaussianBlur stdDeviation="1" result="coloredBlur"/>
      <feMerge>
        <feMergeNode in="coloredBlur"/>
        <feMergeNode in="SourceGraphic"/>
      </feMerge>
    </filter>
  </defs>
  
  <!-- Palette base -->
  <path d="M8 12C8 8.68629 10.6863 6 14 6H20C23.3137 6 26 8.68629 26 12V20C26 23.3137 23.3137 26 20 26H14C10.6863 26 8 23.3137 8 20V12Z" fill="url(#creativitaGrad)" filter="url(#creativitaGlow)"/>
  
  <!-- Color spots -->
  <circle cx="12" cy="10" r="2.5" fill="#FF9500" opacity="0.9"/>
  <circle cx="20" cy="10" r="2.5" fill="#30D158" opacity="0.9"/>
  <circle cx="12" cy="16" r="2.5" fill="#007AFF" opacity="0.9"/>
  <circle cx="20" cy="16" r="2.5" fill="#FF2D92" opacity="0.9"/>
  <circle cx="16" cy="22" r="2.5" fill="#5856D6" opacity="0.9"/>
  
  <!-- Brush/pen -->
  <path d="M4 28L10 22L12 24L6 30L4 28Z" fill="#8E8E93" opacity="0.8"/>
  <path d="M10 22L14 18L16 20L12 24L10 22Z" fill="#FFFFFF" opacity="0.9"/>
  
  <!-- Brush bristles -->
  <g opacity="0.6">
    <line x1="14" y1="18" x2="16" y2="16" stroke="#FF6B6B" stroke-width="1"/>
    <line x1="15" y1="17" x2="17" y2="15" stroke="#FF6B6B" stroke-width="1"/>
    <line x1="16" y1="18" x2="18" y2="16" stroke="#FF6B6B" stroke-width="1"/>
  </g>
</svg>