<svg width="32" height="32" viewBox="0 0 32 32" fill="none" xmlns="http://www.w3.org/2000/svg">
  <defs>
    <linearGradient id="sistemaGrad1" x1="0%" y1="0%" x2="100%" y2="100%">
      <stop offset="0%" style="stop-color:#8E8E93;stop-opacity:1" />
      <stop offset="100%" style="stop-color:#636366;stop-opacity:1" />
    </linearGradient>
  </defs>
  
  <!-- Main gear -->
  <g transform="translate(16,16)">
    <!-- Gear teeth -->
    <g fill="url(#sistemaGrad1)">
      <rect x="-1" y="-10" width="2" height="3" rx="1"/>
      <rect x="-1" y="7" width="2" height="3" rx="1"/>
      <rect x="7" y="-1" width="3" height="2" rx="1"/>
      <rect x="-10" y="-1" width="3" height="2" rx="1"/>
      
      <!-- Diagonal teeth -->
      <rect x="5.5" y="-8.5" width="2" height="3" rx="1" transform="rotate(45)"/>
      <rect x="5.5" y="5.5" width="2" height="3" rx="1" transform="rotate(45)"/>
      <rect x="-7.5" y="5.5" width="2" height="3" rx="1" transform="rotate(45)"/>
      <rect x="-7.5" y="-8.5" width="2" height="3" rx="1" transform="rotate(45)"/>
    </g>
    
    <!-- Main body -->
    <circle r="7" fill="url(#sistemaGrad1)" stroke="#FFFFFF" stroke-width="0.5"/>
    
    <!-- Inner detail -->
    <circle r="4" fill="none" stroke="#FFFFFF" stroke-width="1" opacity="0.7"/>
    <circle r="2" fill="#FFFFFF" opacity="0.9"/>
    
    <!-- Center screw -->
    <circle r="0.8" fill="url(#sistemaGrad1)"/>
    <line x1="-0.6" y1="0" x2="0.6" y2="0" stroke="#FFFFFF" stroke-width="0.3"/>
    <line x1="0" y1="-0.6" x2="0" y2="0.6" stroke="#FFFFFF" stroke-width="0.3"/>
  </g>
  
  <!-- Small gear in corner -->
  <g transform="translate(25,7)">
    <g fill="url(#sistemaGrad1)">
      <rect x="-0.5" y="-4" width="1" height="1.5" rx="0.5"/>
      <rect x="-0.5" y="2.5" width="1" height="1.5" rx="0.5"/>
      <rect x="2.5" y="-0.5" width="1.5" height="1" rx="0.5"/>
      <rect x="-4" y="-0.5" width="1.5" height="1" rx="0.5"/>
    </g>
    <circle r="2.5" fill="url(#sistemaGrad1)" stroke="#FFFFFF" stroke-width="0.3"/>
    <circle r="1" fill="#FFFFFF" opacity="0.8"/>
  </g>
</svg>
