<svg width="32" height="32" viewBox="0 0 32 32" fill="none" xmlns="http://www.w3.org/2000/svg">
  <defs>
    <linearGradient id="eduGrad1" x1="0%" y1="0%" x2="100%" y2="100%">
      <stop offset="0%" style="stop-color:#007AFF;stop-opacity:1" />
      <stop offset="100%" style="stop-color:#0051D5;stop-opacity:1" />
    </linearGradient>
    <linearGradient id="eduGrad2" x1="0%" y1="0%" x2="100%" y2="100%">
      <stop offset="0%" style="stop-color:#5AC8FA;stop-opacity:1" />
      <stop offset="100%" style="stop-color:#007AFF;stop-opacity:1" />
    </linearGradient>
  </defs>
  
  <!-- Open book -->
  <path d="M4 10 Q4 8 6 8 L15 8 L15 24 L6 24 Q4 24 4 22 Z" fill="url(#eduGrad1)"/>
  <path d="M17 8 L26 8 Q28 8 28 10 L28 22 Q28 24 26 24 L17 24 Z" fill="url(#eduGrad2)"/>
  
  <!-- Book spine -->
  <rect x="15.5" y="8" width="1" height="16" fill="#1C1C1E" opacity="0.2"/>
  
  <!-- Text lines on left page -->
  <g opacity="0.7">
    <rect x="6" y="12" width="7" height="0.8" fill="#FFFFFF" rx="0.4"/>
    <rect x="6" y="14" width="6" height="0.8" fill="#FFFFFF" rx="0.4"/>
    <rect x="6" y="16" width="8" height="0.8" fill="#FFFFFF" rx="0.4"/>
    <rect x="6" y="18" width="5" height="0.8" fill="#FFFFFF" rx="0.4"/>
  </g>
  
  <!-- Text lines on right page -->
  <g opacity="0.7">
    <rect x="19" y="12" width="7" height="0.8" fill="#FFFFFF" rx="0.4"/>
    <rect x="19" y="14" width="6" height="0.8" fill="#FFFFFF" rx="0.4"/>
    <rect x="19" y="16" width="8" height="0.8" fill="#FFFFFF" rx="0.4"/>
    <rect x="19" y="18" width="5" height="0.8" fill="#FFFFFF" rx="0.4"/>
  </g>
  
  <!-- Graduation cap -->
  <g transform="translate(16,4)">
    <ellipse rx="6" ry="1.5" fill="#1C1C1E"/>
    <path d="M-4 -0.5 L0 -2 L4 -0.5 L0 1 Z" fill="#1C1C1E"/>
    <line x1="4" y1="-0.5" x2="7" y2="-2" stroke="#FFD60A" stroke-width="1.2"/>
    <circle cx="7" cy="-2" r="0.8" fill="#FFD60A"/>
  </g>
  
  <!-- Knowledge sparkles -->
  <circle cx="8" cy="26" r="1" fill="#FFD60A" opacity="0.8"/>
  <circle cx="24" cy="26" r="0.8" fill="#FFD60A" opacity="0.8"/>
  <path d="M6 6 L6.5 7 L7 6 L6.5 5 Z" fill="#FFD60A" opacity="0.9"/>
</svg>
